<svg width="149" height="39" viewBox="0 0 149 39" fill="none" xmlns="http://www.w3.org/2000/svg">
    <mask id="mask0_449_183" style="mask-type:luminance" maskUnits="userSpaceOnUse" x="0" y="0"
        width="45" height="39">
        <path
            d="M42.0842 14.7142C42.0176 14.1482 42.4221 13.6352 42.9882 13.5684C43.5541 13.5014 44.0671 13.9061 44.1339 14.4721C44.1881 14.9245 44.2301 15.3969 44.2594 15.8882C44.2888 16.3841 44.3039 16.8597 44.3039 17.3129C44.3039 18.7311 44.1748 20.1357 43.9279 21.5137C43.6773 22.9121 43.3038 24.2682 42.8198 25.5696C42.6215 26.1022 42.0289 26.3729 41.4965 26.1748C40.9639 25.9764 40.693 25.384 40.8913 24.8514C41.3331 23.6631 41.6739 22.4261 41.9026 21.1506C42.1229 19.9201 42.2382 18.6379 42.2382 17.3129C42.2382 16.85 42.2262 16.4155 42.2017 16.0092C42.177 15.5895 42.1375 15.1574 42.0842 14.7142ZM30.3883 23.3481C30.6869 22.8646 31.321 22.7146 31.8043 23.0131C32.2878 23.3114 32.4378 23.9455 32.1393 24.429C30.4912 27.1044 27.9905 29.0684 25.1326 30.0822C22.3305 31.0762 19.1816 31.1575 16.1529 30.1009C12.6209 28.8686 9.92269 26.3221 8.41591 23.2013C6.90935 20.0805 6.59352 16.3841 7.82524 12.8527L7.82662 12.8495C9.05885 9.31889 11.6051 6.62188 14.7252 5.11555C17.8459 3.609 21.5423 3.29305 25.0736 4.52476L25.0782 4.52614C28.6081 5.75887 31.3049 8.30485 32.811 11.4245C34.3175 14.5454 34.6337 18.2419 33.4016 21.7736C33.2145 22.3105 32.6274 22.5942 32.0904 22.4071C31.5534 22.2197 31.2698 21.6327 31.457 21.0957C32.5013 18.1018 32.2331 14.9673 30.955 12.3202C29.6771 9.67314 27.3898 7.51364 24.3964 6.46943C21.4022 5.42518 18.2681 5.69324 15.621 6.97115C12.9739 8.24898 10.8143 10.5363 9.77018 13.53C8.72584 16.5242 8.9939 19.6584 10.272 22.3055C11.5499 24.9524 13.8369 27.112 16.8305 28.1561C19.3969 29.0514 22.0678 28.9815 24.4469 28.1376C26.8724 27.2773 28.9926 25.613 30.3883 23.3481ZM17.5108 20.8909C17.9406 21.2628 17.9878 21.9131 17.6158 22.3433C17.244 22.7732 16.5934 22.8202 16.1635 22.4481C15.4322 21.8136 14.8373 21.0249 14.4297 20.1322C14.035 19.2678 13.8149 18.3126 13.8149 17.3129C13.8149 16.3958 13.999 15.5173 14.3323 14.7128L14.3572 14.6576C14.7032 13.8429 15.1985 13.1138 15.8063 12.5057C16.2096 12.1027 16.8635 12.1027 17.2668 12.5057L20.6134 15.8524L23.9602 12.5057C24.3635 12.1027 25.0175 12.1027 25.4208 12.5057C26.0432 13.1284 26.5475 13.8782 26.8948 14.7165C27.2279 15.5213 27.412 16.3984 27.412 17.3129C27.412 18.3127 27.1918 19.2682 26.797 20.1327C26.3897 21.0254 25.7948 21.8143 25.0636 22.4484C24.6336 22.8205 23.9833 22.7734 23.6112 22.3435C23.2392 21.9135 23.2862 21.2632 23.7162 20.8912C24.2265 20.4483 24.6413 19.8987 24.9249 19.2774C25.1953 18.6851 25.3462 18.0199 25.3462 17.3129C25.3462 16.6653 25.2197 16.0531 24.9903 15.4993C24.8859 15.247 24.7588 15.0048 24.6118 14.775L21.3436 18.0433C20.9404 18.4464 20.2864 18.4464 19.8831 18.0433L16.6152 14.775C16.4768 14.9912 16.3564 15.2184 16.2553 15.4549L16.2365 15.5034C16.0071 16.0573 15.8806 16.6683 15.8806 17.3129C15.8806 18.0197 16.0313 18.6844 16.3019 19.2769C16.5853 19.898 17.0006 20.4481 17.5108 20.8909ZM13.0468 14.4073C12.844 14.9377 12.2496 15.2031 11.7194 15.0004C11.1891 14.7977 10.9236 14.2033 11.1262 13.6729C11.7431 12.0699 12.7554 10.6432 14.0655 9.5379C15.3363 8.46614 16.8846 7.69138 18.6231 7.34409C19.5404 7.16092 20.4567 7.10827 21.3519 7.17331C22.2795 7.24083 23.1786 7.43363 24.0282 7.73734C24.5652 7.92886 24.8451 8.51966 24.6535 9.05653C24.4619 9.5934 23.8713 9.87372 23.3343 9.68207C22.653 9.43819 21.9379 9.28412 21.2068 9.23097C20.4965 9.17952 19.7643 9.22235 19.0264 9.3695C17.6366 9.64706 16.4036 10.2624 15.397 11.1115C14.3455 11.9982 13.5363 13.1354 13.0468 14.4073ZM27.0545 12.3947C26.7091 11.9423 26.7959 11.2958 27.2481 10.9504C27.7004 10.605 28.3472 10.6918 28.6925 11.1439C29.1564 11.7505 29.5549 12.4133 29.8758 13.1232C30.1889 13.8167 30.4285 14.5526 30.5821 15.3224C31.1313 18.0718 30.5117 20.7872 29.066 22.9539C27.6222 25.1187 25.3538 26.7325 22.6038 27.2815C20.067 27.7883 17.5581 27.299 15.4826 26.0837C13.3866 24.8569 11.7359 22.8867 10.9475 20.4515C10.7738 19.9101 11.0718 19.3301 11.6129 19.1564C12.1545 18.9828 12.7345 19.2807 12.9081 19.822C13.5359 21.7603 14.8517 23.3301 16.5234 24.3085C18.1721 25.2739 20.1717 25.6612 22.2003 25.2562C24.3964 24.8177 26.2057 23.5318 27.3557 21.8081C28.5043 20.0863 28.9953 17.9227 28.5567 15.7261C28.4327 15.1043 28.2424 14.5173 27.9954 13.9705C27.7393 13.4035 27.4221 12.8756 27.0545 12.3947ZM23.8261 2.79726C23.2691 2.67713 22.9151 2.12788 23.0354 1.57088C23.1554 1.01379 23.7048 0.659836 24.2618 0.780094C24.9441 0.929974 25.614 1.12268 26.2678 1.35482C26.9159 1.58461 27.5576 1.85986 28.1887 2.17634C28.6967 2.43013 28.9027 3.0481 28.6485 3.55609C28.3947 4.06385 27.7769 4.27 27.269 4.01594C26.7363 3.74907 26.1735 3.50911 25.582 3.2994C25.015 3.09808 24.4285 2.92977 23.8261 2.79726ZM30.9066 6.58812C30.4966 6.19372 30.484 5.54157 30.8782 5.1316C31.2727 4.72162 31.9247 4.70882 32.3347 5.10313C33.9686 6.67182 35.2887 8.56613 36.1904 10.6818C37.0601 12.7222 37.5415 14.9638 37.5415 17.3129C37.5415 20.5603 36.6263 23.595 35.0398 26.1725C33.4014 28.8346 31.0431 31.0095 28.2352 32.4281C27.7271 32.6842 27.1075 32.4801 26.8513 31.9722C26.595 31.4641 26.7994 30.8444 27.3073 30.5882C29.769 29.3448 31.8389 27.4335 33.2806 25.0913C34.6728 22.8297 35.4759 20.1655 35.4759 17.3129C35.4759 15.2417 35.0547 13.273 34.2941 11.4886C33.5023 9.63075 32.3425 7.96649 30.9066 6.58812ZM16.8622 31.7012C17.4125 31.8437 17.7432 32.4057 17.6006 32.956C17.4581 33.5063 16.8962 33.8368 16.3459 33.6941C14.2327 33.145 12.2826 32.2003 10.5802 30.9444C8.84633 29.666 7.36617 28.0662 6.22795 26.2348C5.927 25.7513 6.07517 25.1154 6.55879 24.8146C7.04223 24.514 7.67808 24.6621 7.97889 25.1456C8.98045 26.7572 10.2795 28.1619 11.7985 29.2824C13.2992 30.3894 15.012 31.2204 16.8622 31.7012ZM5.97213 19.8852C6.07033 20.4466 5.69444 20.9814 5.13289 21.0794C4.57147 21.1774 4.03673 20.8016 3.93894 20.2402C3.8547 19.7575 3.79072 19.2713 3.7488 18.7838L3.74696 18.7563C3.70634 18.2778 3.68561 17.7962 3.68561 17.3129C3.68561 12.6386 5.58044 8.40645 8.64394 5.3431C11.7071 2.27974 15.9392 0.384766 20.6136 0.384766C21.184 0.384766 21.6463 0.847202 21.6463 1.41774C21.6463 1.98804 21.184 2.45048 20.6136 2.45048C16.5093 2.45048 12.7936 4.11387 10.1044 6.80355C7.41471 9.49286 5.75123 13.2086 5.75123 17.3129C5.75123 17.7431 5.76911 18.1665 5.80411 18.5815L5.80641 18.6062C5.84418 19.0418 5.89968 19.4687 5.97213 19.8852ZM36.305 7.99897C36.0153 7.50871 36.1779 6.8764 36.6682 6.58683C37.1584 6.29712 37.7906 6.4598 38.0803 6.94992C38.9933 8.48521 39.7112 10.1587 40.1983 11.9359C40.6705 13.658 40.9228 15.4618 40.9228 17.3129C40.9228 19.4846 40.5783 21.5833 39.9405 23.5562C39.282 25.5949 38.3099 27.4931 37.0811 29.1928C36.7494 29.654 36.1062 29.7589 35.6451 29.4268C35.1838 29.095 35.0789 28.4517 35.4108 27.9907C36.5149 26.463 37.3884 24.7581 37.98 22.9269C38.5496 21.1647 38.8571 19.2782 38.8571 17.3129C38.8571 15.6284 38.633 14.0068 38.2135 12.4766C37.7795 10.8938 37.1325 9.39051 36.305 7.99897ZM14.3366 34.4498C14.8714 34.6459 15.1458 35.2386 14.9498 35.773C14.7538 36.3078 14.161 36.5824 13.6264 36.3864C12.4894 35.9696 11.3926 35.4487 10.3473 34.8348C9.29287 34.2156 8.30269 33.5075 7.3885 32.722C6.95619 32.3522 6.90567 31.7018 7.27543 31.2696C7.64529 30.8374 8.29578 30.7867 8.72791 31.1565C9.55804 31.8697 10.4483 32.5077 11.3881 33.0596C12.3137 33.6031 13.2993 34.0698 14.3366 34.4498ZM5.87974 28.0758C6.21616 28.5346 6.11681 29.1797 5.65778 29.5158C5.19885 29.8523 4.55401 29.7529 4.21755 29.294C2.96598 27.5839 1.97515 25.6713 1.30365 23.615C0.65514 21.6273 0.304077 19.5088 0.304077 17.3129C0.304077 15.025 0.684808 12.8219 1.38629 10.7639C2.11237 8.63353 3.18361 6.66085 4.53338 4.91317C4.88067 4.46299 5.52757 4.38008 5.97766 4.72765C6.42794 5.07507 6.51085 5.72198 6.16328 6.17189C4.95312 7.73915 3.99154 9.51022 3.33883 11.4253C2.71086 13.2687 2.36984 15.2488 2.36984 17.3129C2.36984 19.2945 2.68382 21.1985 3.26458 22.9774C3.86722 24.8241 4.75677 26.5412 5.87974 28.0758ZM11.712 37.0285C12.231 37.2626 12.4623 37.8732 12.2283 38.3925C11.9944 38.9114 11.3838 39.1427 10.8646 38.9087C10.2849 38.6464 9.70584 38.3543 9.12955 38.0342C8.56094 37.7181 8.00593 37.3787 7.46616 37.0182C6.99382 36.702 6.86743 36.0622 7.18377 35.59C7.50024 35.1176 8.13973 34.9912 8.61212 35.3077C9.10394 35.6362 9.61027 35.9457 10.1304 36.2348C10.633 36.5141 11.1608 36.7794 11.712 37.0285Z"
            fill="white" />
    </mask>
    <g mask="url(#mask0_449_183)">
        <path
            d="M42.0842 14.7142C42.0176 14.1482 42.4221 13.6352 42.9882 13.5684C43.5541 13.5014 44.0671 13.9061 44.1339 14.4721C44.1881 14.9245 44.2301 15.3969 44.2594 15.8882C44.2888 16.3841 44.3039 16.8597 44.3039 17.3129C44.3039 18.7311 44.1748 20.1357 43.9279 21.5137C43.6773 22.9121 43.3038 24.2682 42.8198 25.5696C42.6215 26.1022 42.0289 26.3729 41.4965 26.1748C40.9639 25.9764 40.693 25.384 40.8913 24.8514C41.3331 23.6631 41.6739 22.4261 41.9026 21.1506C42.1229 19.9201 42.2382 18.6379 42.2382 17.3129C42.2382 16.85 42.2262 16.4155 42.2017 16.0092C42.177 15.5895 42.1375 15.1574 42.0842 14.7142ZM30.3883 23.3481C30.6869 22.8646 31.321 22.7146 31.8043 23.0131C32.2878 23.3114 32.4378 23.9455 32.1393 24.429C30.4912 27.1044 27.9905 29.0684 25.1326 30.0822C22.3305 31.0762 19.1816 31.1575 16.1529 30.1009C12.6209 28.8686 9.92269 26.3221 8.41591 23.2013C6.90935 20.0805 6.59352 16.3841 7.82524 12.8527L7.82662 12.8495C9.05885 9.31889 11.6051 6.62188 14.7252 5.11555C17.8459 3.609 21.5423 3.29305 25.0736 4.52476L25.0782 4.52614C28.6081 5.75887 31.3049 8.30485 32.811 11.4245C34.3175 14.5454 34.6337 18.2419 33.4016 21.7736C33.2145 22.3105 32.6274 22.5942 32.0904 22.4071C31.5534 22.2197 31.2698 21.6327 31.457 21.0957C32.5013 18.1018 32.2331 14.9673 30.955 12.3202C29.6771 9.67314 27.3898 7.51364 24.3964 6.46943C21.4022 5.42518 18.2681 5.69324 15.621 6.97115C12.9739 8.24898 10.8143 10.5363 9.77018 13.53C8.72584 16.5242 8.9939 19.6584 10.272 22.3055C11.5499 24.9524 13.8369 27.112 16.8305 28.1561C19.3969 29.0514 22.0678 28.9815 24.4469 28.1376C26.8724 27.2773 28.9926 25.613 30.3883 23.3481ZM17.5108 20.8909C17.9406 21.2628 17.9878 21.9131 17.6158 22.3433C17.244 22.7732 16.5934 22.8202 16.1635 22.4481C15.4322 21.8136 14.8373 21.0249 14.4297 20.1322C14.035 19.2678 13.8149 18.3126 13.8149 17.3129C13.8149 16.3958 13.999 15.5173 14.3323 14.7128L14.3572 14.6576C14.7032 13.8429 15.1985 13.1138 15.8063 12.5057C16.2096 12.1027 16.8635 12.1027 17.2668 12.5057L20.6134 15.8524L23.9602 12.5057C24.3635 12.1027 25.0175 12.1027 25.4208 12.5057C26.0432 13.1284 26.5475 13.8782 26.8948 14.7165C27.2279 15.5213 27.412 16.3984 27.412 17.3129C27.412 18.3127 27.1918 19.2682 26.797 20.1327C26.3897 21.0254 25.7948 21.8143 25.0636 22.4484C24.6336 22.8205 23.9833 22.7734 23.6112 22.3435C23.2392 21.9135 23.2862 21.2632 23.7162 20.8912C24.2265 20.4483 24.6413 19.8987 24.9249 19.2774C25.1953 18.6851 25.3462 18.0199 25.3462 17.3129C25.3462 16.6653 25.2197 16.0531 24.9903 15.4993C24.8859 15.247 24.7588 15.0048 24.6118 14.775L21.3436 18.0433C20.9404 18.4464 20.2864 18.4464 19.8831 18.0433L16.6152 14.775C16.4768 14.9912 16.3564 15.2184 16.2553 15.4549L16.2365 15.5034C16.0071 16.0573 15.8806 16.6683 15.8806 17.3129C15.8806 18.0197 16.0313 18.6844 16.3019 19.2769C16.5853 19.898 17.0006 20.4481 17.5108 20.8909ZM13.0468 14.4073C12.844 14.9377 12.2496 15.2031 11.7194 15.0004C11.1891 14.7977 10.9236 14.2033 11.1262 13.6729C11.7431 12.0699 12.7554 10.6432 14.0655 9.5379C15.3363 8.46614 16.8846 7.69138 18.6231 7.34409C19.5404 7.16092 20.4567 7.10827 21.3519 7.17331C22.2795 7.24083 23.1786 7.43363 24.0282 7.73734C24.5652 7.92886 24.8451 8.51966 24.6535 9.05653C24.4619 9.5934 23.8713 9.87372 23.3343 9.68207C22.653 9.43819 21.9379 9.28412 21.2068 9.23097C20.4965 9.17952 19.7643 9.22235 19.0264 9.3695C17.6366 9.64706 16.4036 10.2624 15.397 11.1115C14.3455 11.9982 13.5363 13.1354 13.0468 14.4073ZM27.0545 12.3947C26.7091 11.9423 26.7959 11.2958 27.2481 10.9504C27.7004 10.605 28.3472 10.6918 28.6925 11.1439C29.1564 11.7505 29.5549 12.4133 29.8758 13.1232C30.1889 13.8167 30.4285 14.5526 30.5821 15.3224C31.1313 18.0718 30.5117 20.7872 29.066 22.9539C27.6222 25.1187 25.3538 26.7325 22.6038 27.2815C20.067 27.7883 17.5581 27.299 15.4826 26.0837C13.3866 24.8569 11.7359 22.8867 10.9475 20.4515C10.7738 19.9101 11.0718 19.3301 11.6129 19.1564C12.1545 18.9828 12.7345 19.2807 12.9081 19.822C13.5359 21.7603 14.8517 23.3301 16.5234 24.3085C18.1721 25.2739 20.1717 25.6612 22.2003 25.2562C24.3964 24.8177 26.2057 23.5318 27.3557 21.8081C28.5043 20.0863 28.9953 17.9227 28.5567 15.7261C28.4327 15.1043 28.2424 14.5173 27.9954 13.9705C27.7393 13.4035 27.4221 12.8756 27.0545 12.3947ZM23.8261 2.79726C23.2691 2.67713 22.9151 2.12788 23.0354 1.57088C23.1554 1.01379 23.7048 0.659836 24.2618 0.780094C24.9441 0.929974 25.614 1.12268 26.2678 1.35482C26.9159 1.58461 27.5576 1.85986 28.1887 2.17634C28.6967 2.43013 28.9027 3.0481 28.6485 3.55609C28.3947 4.06385 27.7769 4.27 27.269 4.01594C26.7363 3.74907 26.1735 3.50911 25.582 3.2994C25.015 3.09808 24.4285 2.92977 23.8261 2.79726ZM30.9066 6.58812C30.4966 6.19372 30.484 5.54157 30.8782 5.1316C31.2727 4.72162 31.9247 4.70882 32.3347 5.10313C33.9686 6.67182 35.2887 8.56613 36.1904 10.6818C37.0601 12.7222 37.5415 14.9638 37.5415 17.3129C37.5415 20.5603 36.6263 23.595 35.0398 26.1725C33.4014 28.8346 31.0431 31.0095 28.2352 32.4281C27.7271 32.6842 27.1075 32.4801 26.8513 31.9722C26.595 31.4641 26.7994 30.8444 27.3073 30.5882C29.769 29.3448 31.8389 27.4335 33.2806 25.0913C34.6728 22.8297 35.4759 20.1655 35.4759 17.3129C35.4759 15.2417 35.0547 13.273 34.2941 11.4886C33.5023 9.63075 32.3425 7.96649 30.9066 6.58812ZM16.8622 31.7012C17.4125 31.8437 17.7432 32.4057 17.6006 32.956C17.4581 33.5063 16.8962 33.8368 16.3459 33.6941C14.2327 33.145 12.2826 32.2003 10.5802 30.9444C8.84633 29.666 7.36617 28.0662 6.22795 26.2348C5.927 25.7513 6.07517 25.1154 6.55879 24.8146C7.04223 24.514 7.67808 24.6621 7.97889 25.1456C8.98045 26.7572 10.2795 28.1619 11.7985 29.2824C13.2992 30.3894 15.012 31.2204 16.8622 31.7012ZM5.97213 19.8852C6.07033 20.4466 5.69444 20.9814 5.13289 21.0794C4.57147 21.1774 4.03673 20.8016 3.93894 20.2402C3.8547 19.7575 3.79072 19.2713 3.7488 18.7838L3.74696 18.7563C3.70634 18.2778 3.68561 17.7962 3.68561 17.3129C3.68561 12.6386 5.58044 8.40645 8.64394 5.3431C11.7071 2.27974 15.9392 0.384766 20.6136 0.384766C21.184 0.384766 21.6463 0.847202 21.6463 1.41774C21.6463 1.98804 21.184 2.45048 20.6136 2.45048C16.5093 2.45048 12.7936 4.11387 10.1044 6.80355C7.41471 9.49286 5.75123 13.2086 5.75123 17.3129C5.75123 17.7431 5.76911 18.1665 5.80411 18.5815L5.80641 18.6062C5.84418 19.0418 5.89968 19.4687 5.97213 19.8852ZM36.305 7.99897C36.0153 7.50871 36.1779 6.8764 36.6682 6.58683C37.1584 6.29712 37.7906 6.4598 38.0803 6.94992C38.9933 8.48521 39.7112 10.1587 40.1983 11.9359C40.6705 13.658 40.9228 15.4618 40.9228 17.3129C40.9228 19.4846 40.5783 21.5833 39.9405 23.5562C39.282 25.5949 38.3099 27.4931 37.0811 29.1928C36.7494 29.654 36.1062 29.7589 35.6451 29.4268C35.1838 29.095 35.0789 28.4517 35.4108 27.9907C36.5149 26.463 37.3884 24.7581 37.98 22.9269C38.5496 21.1647 38.8571 19.2782 38.8571 17.3129C38.8571 15.6284 38.633 14.0068 38.2135 12.4766C37.7795 10.8938 37.1325 9.39051 36.305 7.99897ZM14.3366 34.4498C14.8714 34.6459 15.1458 35.2386 14.9498 35.773C14.7538 36.3078 14.161 36.5824 13.6264 36.3864C12.4894 35.9696 11.3926 35.4487 10.3473 34.8348C9.29287 34.2156 8.30269 33.5075 7.3885 32.722C6.95619 32.3522 6.90567 31.7018 7.27543 31.2696C7.64529 30.8374 8.29578 30.7867 8.72791 31.1565C9.55804 31.8697 10.4483 32.5077 11.3881 33.0596C12.3137 33.6031 13.2993 34.0698 14.3366 34.4498ZM5.87974 28.0758C6.21616 28.5346 6.11681 29.1797 5.65778 29.5158C5.19885 29.8523 4.55401 29.7529 4.21755 29.294C2.96598 27.5839 1.97515 25.6713 1.30365 23.615C0.65514 21.6273 0.304077 19.5088 0.304077 17.3129C0.304077 15.025 0.684808 12.8219 1.38629 10.7639C2.11237 8.63353 3.18361 6.66085 4.53338 4.91317C4.88067 4.46299 5.52757 4.38008 5.97766 4.72765C6.42794 5.07507 6.51085 5.72198 6.16328 6.17189C4.95312 7.73915 3.99154 9.51022 3.33883 11.4253C2.71086 13.2687 2.36984 15.2488 2.36984 17.3129C2.36984 19.2945 2.68382 21.1985 3.26458 22.9774C3.86722 24.8241 4.75677 26.5412 5.87974 28.0758ZM11.712 37.0285C12.231 37.2626 12.4623 37.8732 12.2283 38.3925C11.9944 38.9114 11.3838 39.1427 10.8646 38.9087C10.2849 38.6464 9.70584 38.3543 9.12955 38.0342C8.56094 37.7181 8.00593 37.3787 7.46616 37.0182C6.99382 36.702 6.86743 36.0622 7.18377 35.59C7.50024 35.1176 8.13973 34.9912 8.61212 35.3077C9.10394 35.6362 9.61027 35.9457 10.1304 36.2348C10.633 36.5141 11.1608 36.7794 11.712 37.0285Z"
            fill="#F16C21" />
    </g>
    <path
        d="M54.3273 18.9507V7.94732H56.4336L61.1179 15.7126H60.0019L64.6076 7.94732H66.6982L66.7296 18.9507H64.3403L64.3246 11.6099H64.7647L61.0865 17.7875H59.939L56.1821 11.6099H56.7166V18.9507H54.3273ZM71.6824 12.3801H76.9797V14.3607H71.6824V12.3801ZM71.871 16.9072H77.86V18.9507H69.3402V7.94732H77.6556V9.9908H71.871V16.9072ZM79.8861 18.9507V7.94732H81.9925L88.4845 15.8697H87.4627V7.94732H89.9778V18.9507H87.8872L81.3795 11.0283H82.4012V18.9507H79.8861ZM94.8604 18.9507V10.0222H91.3393V7.94732H100.928V10.0222H97.4069V18.9507H94.8604ZM100.299 18.9507L105.204 7.94732H107.719L112.639 18.9507H109.967L105.943 9.23628H106.949L102.909 18.9507H100.299ZM102.752 16.5928L103.427 14.6594H109.086L109.778 16.5928H102.752ZM113.78 18.9507V7.94732H116.327V16.8758H121.844V18.9507H113.78ZM123.267 18.9507V7.94732H125.814V18.9507H123.267ZM130.704 18.9507V10.0222H127.183V7.94732H136.772V10.0222H133.251V18.9507H130.704ZM140.662 18.9507V14.455L141.244 15.9955L136.402 7.94732H139.106L142.816 14.1249H141.26L144.985 7.94732H147.484L142.643 15.9955L143.209 14.455V18.9507H140.662Z"
        fill="white" />
    <path
        d="M74.0301 30.2139V24.3314H75.1562L77.6605 28.4827H77.0638L79.526 24.3314H80.6437L80.6605 30.2139H79.3832L79.3748 26.2894H79.6101L77.6437 29.592H77.0302L75.0218 26.2894H75.3075V30.2139H74.0301ZM81.283 30.2139L83.9049 24.3314H85.2495L87.8798 30.2139H86.4512L84.2999 25.0205H84.8377L82.678 30.2139H81.283ZM82.594 28.9533L82.9553 27.9197H85.9806L86.3504 28.9533H82.594ZM88.4901 30.2139V24.3314H91.0364C91.563 24.3314 92.0168 24.4182 92.3978 24.5919C92.7787 24.76 93.0729 25.0037 93.2801 25.323C93.4874 25.6423 93.5911 26.0233 93.5911 26.4659C93.5911 26.9029 93.4874 27.281 93.2801 27.6004C93.0729 27.9141 92.7787 28.155 92.3978 28.3231C92.0168 28.4911 91.563 28.5752 91.0364 28.5752H89.2464L89.8515 27.9785V30.2139H88.4901ZM92.2297 30.2139L90.7591 28.0794H92.2129L93.7003 30.2139H92.2297ZM89.8515 28.1298L89.2464 27.4911H90.9608C91.3809 27.4911 91.6947 27.4015 91.902 27.2222C92.1092 27.0373 92.2129 26.7852 92.2129 26.4659C92.2129 26.141 92.1092 25.8888 91.902 25.7096C91.6947 25.5303 91.3809 25.4407 90.9608 25.4407H89.2464L89.8515 24.7936V28.1298ZM95.8882 28.8693L95.8126 27.2978L98.6277 24.3314H100.14L97.6025 27.0625L96.8462 27.8693L95.8882 28.8693ZM94.6697 30.2139V24.3314H96.0226V30.2139H94.6697ZM98.695 30.2139L96.6025 27.6508L97.4933 26.6844L100.283 30.2139H98.695ZM102.142 26.7012H104.974V27.76H102.142V26.7012ZM102.243 29.1214H105.445V30.2139H100.89V24.3314H105.336V25.4239H102.243V29.1214ZM107.747 30.2139V25.4407H105.864V24.3314H110.99V25.4407H109.108V30.2139H107.747ZM111.723 30.2139V24.3314H113.084V30.2139H111.723ZM114.48 30.2139V24.3314H115.606L119.077 28.5668H118.531V24.3314H119.875V30.2139H118.758L115.279 25.9785H115.825V30.2139H114.48ZM124.108 30.3147C123.643 30.3147 123.214 30.2419 122.822 30.0962C122.435 29.945 122.096 29.7321 121.805 29.4575C121.519 29.183 121.295 28.8609 121.133 28.4911C120.976 28.1214 120.897 27.7152 120.897 27.2726C120.897 26.83 120.976 26.4239 121.133 26.0541C121.295 25.6844 121.522 25.3622 121.813 25.0877C122.105 24.8132 122.446 24.6031 122.839 24.4574C123.231 24.3062 123.662 24.2306 124.133 24.2306C124.654 24.2306 125.122 24.3174 125.536 24.4911C125.956 24.6647 126.309 24.9168 126.595 25.2474L125.721 26.0541C125.508 25.83 125.276 25.6648 125.024 25.5583C124.771 25.4463 124.497 25.3902 124.2 25.3902C123.914 25.3902 123.654 25.4351 123.418 25.5247C123.183 25.6143 122.979 25.7432 122.805 25.9113C122.637 26.0793 122.505 26.2782 122.41 26.5079C122.32 26.7376 122.276 26.9925 122.276 27.2726C122.276 27.5471 122.32 27.7993 122.41 28.0289C122.505 28.2586 122.637 28.4603 122.805 28.634C122.979 28.8021 123.18 28.9309 123.41 29.0206C123.645 29.1102 123.903 29.155 124.183 29.155C124.452 29.155 124.713 29.113 124.965 29.029C125.222 28.9393 125.472 28.7909 125.713 28.5836L126.486 29.5668C126.166 29.8077 125.794 29.9926 125.368 30.1214C124.948 30.2503 124.528 30.3147 124.108 30.3147ZM125.242 29.3903V27.1802H126.486V29.5668L125.242 29.3903Z"
        fill="#F16C21" />
</svg>
    